<svg width="32" height="31" viewBox="0 0 32 31" fill="none" xmlns="http://www.w3.org/2000/svg">
<circle cx="15.9593" cy="15.2419" r="15.2419" fill="#E63946"/>
<path d="M14.5639 14.9206C14.5639 14.9206 16.4862 14.7746 16.4862 12.4743C16.4862 10.176 15.1824 9.04302 13.1896 9.04302L6.3625 9.03223V21.7337H13.3483C13.3483 21.7337 16.8413 21.8442 16.8413 17.9233C16.8413 17.9233 17.0978 14.9206 14.5639 14.9206ZM8.90281 10.9375H12.3957C12.3957 10.9375 13.5909 10.9571 13.5909 12.5067C13.5909 14.1128 12.3957 14.1128 12.3957 14.1128H8.90281V10.9375ZM12.7133 19.8285H8.90281V16.0181H12.7133C12.7133 16.0181 14.6185 16.0377 14.6185 17.9233C14.6185 19.8088 12.9876 19.8285 12.7133 19.8285Z" fill="white"/>
<path d="M22.2396 12.2079C17.4682 12.2079 17.4765 16.971 17.4765 16.971C17.4765 16.971 17.1589 21.734 22.2396 21.734C22.2396 21.734 26.6851 21.734 26.6851 17.9236H24.1448C24.1448 17.9236 24.1448 19.8288 22.2396 19.8288C22.2396 19.8288 20.3343 19.8288 20.3343 17.2885C20.3343 17.2885 25.4149 17.2885 26.6851 17.2885C26.6851 16.0183 26.6851 12.2079 22.2396 12.2079ZM20.3343 16.0183C20.3343 16.0183 20.2924 14.1131 22.2396 14.1131C24.1861 14.1131 24.1448 16.0183 24.1448 16.0183H20.3343Z" fill="white"/>
<path d="M24.78 10.3025H19.6994V11.5726H24.78V10.3025Z" fill="white"/>
</svg>
