<svg width="33" height="33" viewBox="0 0 33 33" fill="none" xmlns="http://www.w3.org/2000/svg">
<path d="M16.2824 5.84546C9.77705 5.84546 4.28238 11.3401 4.28238 17.8455C4.28238 24.3508 9.77705 29.8455 16.2824 29.8455C22.7877 29.8455 28.2824 24.3508 28.2824 17.8455C28.2824 11.3401 22.7877 5.84546 16.2824 5.84546ZM16.2824 27.1788C11.2237 27.1788 6.94905 22.9041 6.94905 17.8455C6.94905 12.7868 11.2237 8.51213 16.2824 8.51213C21.341 8.51213 25.6157 12.7868 25.6157 17.8455C25.6157 22.9041 21.341 27.1788 16.2824 27.1788Z" fill="#E63946"/>
<path d="M17.6157 16.5121V11.1788H14.949V19.1788H22.949V16.5121H17.6157ZM23.3277 5.45477L25.2104 3.56677L29.2237 7.56677L27.3397 9.45611L23.3277 5.45477ZM9.21305 5.45477L5.22638 9.45344L3.33571 7.57077L7.32238 3.57077L9.21305 5.45477Z" fill="#E63946"/>
</svg>
