<svg width="26" height="28" viewBox="0 0 26 28" fill="none" xmlns="http://www.w3.org/2000/svg">
<path d="M4.97474 18C6.14153 17.9934 7.26377 17.5511 8.1214 16.76L16.4681 21.5333C16.3618 21.9017 16.3079 22.2832 16.3081 22.6667C16.2995 23.7487 16.664 24.8007 17.3403 25.6454C18.0166 26.4901 18.9633 27.0761 20.021 27.3045C21.0787 27.5329 22.1828 27.3899 23.1474 26.8996C24.112 26.4093 24.8782 25.6015 25.317 24.6124C25.7557 23.6232 25.8403 22.5131 25.5563 21.4689C25.2724 20.4247 24.6374 19.5103 23.7581 18.8795C22.8789 18.2488 21.8091 17.9403 20.729 18.0059C19.6489 18.0716 18.6245 18.5074 17.8281 19.24L9.4814 14.4667C9.58213 14.1381 9.636 13.7969 9.6414 13.4533L17.8414 8.75998C18.6335 9.47577 19.6476 9.89743 20.7137 9.95425C21.7797 10.0111 22.8329 9.69959 23.6966 9.07205C24.5603 8.44451 25.1819 7.53908 25.4573 6.50761C25.7326 5.47614 25.6449 4.38136 25.2088 3.40689C24.7728 2.43241 24.0149 1.63751 23.0623 1.15549C22.1098 0.673469 21.0204 0.533652 19.977 0.759485C18.9336 0.985319 17.9995 1.56307 17.3315 2.39584C16.6635 3.22861 16.3022 4.26575 16.3081 5.33332C16.3126 5.71639 16.3664 6.0973 16.4681 6.46665L8.8814 10.8C8.44182 10.1199 7.83283 9.56596 7.11432 9.19252C6.3958 8.81909 5.59247 8.63905 4.7833 8.6701C3.97413 8.70115 3.18697 8.94221 2.49918 9.36961C1.81139 9.797 1.24665 10.396 0.860459 11.1077C0.474272 11.8195 0.279934 12.6195 0.296545 13.4291C0.313156 14.2387 0.540146 15.03 0.955203 15.7253C1.37026 16.4206 1.9591 16.9959 2.66384 17.3948C3.36858 17.7936 4.16497 18.0022 4.97474 18ZM20.9747 20.6667C21.3703 20.6667 21.757 20.7839 22.0859 21.0037C22.4148 21.2235 22.6711 21.5358 22.8225 21.9013C22.9739 22.2667 23.0135 22.6689 22.9363 23.0568C22.8591 23.4448 22.6687 23.8012 22.389 24.0809C22.1092 24.3606 21.7529 24.5511 21.3649 24.6282C20.977 24.7054 20.5748 24.6658 20.2094 24.5144C19.8439 24.363 19.5316 24.1067 19.3118 23.7778C19.092 23.4489 18.9747 23.0622 18.9747 22.6667C18.9747 22.1362 19.1855 21.6275 19.5605 21.2524C19.9356 20.8774 20.4443 20.6667 20.9747 20.6667ZM20.9747 3.33332C21.3703 3.33332 21.757 3.45062 22.0859 3.67038C22.4148 3.89014 22.6711 4.2025 22.8225 4.56795C22.9739 4.9334 23.0135 5.33554 22.9363 5.7235C22.8591 6.11146 22.6687 6.46783 22.389 6.74753C22.1092 7.02724 21.7529 7.21772 21.3649 7.29489C20.977 7.37206 20.5748 7.33245 20.2094 7.18108C19.8439 7.0297 19.5316 6.77336 19.3118 6.44446C19.092 6.11556 18.9747 5.72888 18.9747 5.33332C18.9747 4.80289 19.1855 4.29418 19.5605 3.9191C19.9356 3.54403 20.4443 3.33332 20.9747 3.33332ZM4.97474 11.3333C5.3703 11.3333 5.75698 11.4506 6.08588 11.6704C6.41478 11.8901 6.67112 12.2025 6.8225 12.568C6.97387 12.9334 7.01348 13.3355 6.93631 13.7235C6.85914 14.1115 6.66866 14.4678 6.38895 14.7475C6.10925 15.0272 5.75288 15.2177 5.36492 15.2949C4.97695 15.3721 4.57482 15.3325 4.20937 15.1811C3.84392 15.0297 3.53156 14.7734 3.3118 14.4445C3.09203 14.1156 2.97474 13.7289 2.97474 13.3333C2.97474 12.8029 3.18545 12.2942 3.56052 11.9191C3.9356 11.544 4.4443 11.3333 4.97474 11.3333Z" fill="#E63946"/>
</svg>
