<svg width="28" height="25" viewBox="0 0 28 25" fill="none" xmlns="http://www.w3.org/2000/svg">
<path d="M24.949 0.240234H7.61571C6.14504 0.240234 4.94904 1.43623 4.94904 2.9069V5.57357H3.61571C2.14504 5.57357 0.949043 6.76957 0.949043 8.24023V21.5736C0.949043 23.0442 2.14504 24.2402 3.61571 24.2402H11.6157C13.0864 24.2402 14.2824 23.0442 14.2824 21.5736H24.949C26.4197 21.5736 27.6157 20.3776 27.6157 18.9069V2.9069C27.6157 1.43623 26.4197 0.240234 24.949 0.240234ZM11.6117 21.5736H3.61571V8.24023H11.6157L11.6117 21.5736ZM24.945 18.9069H14.2824V8.24023C14.2824 6.76957 13.0864 5.57357 11.6157 5.57357H7.61571V2.9069H24.949L24.945 18.9069Z" fill="#E63946"/>
</svg>
