<svg width="33" height="33" viewBox="0 0 33 33" fill="none" xmlns="http://www.w3.org/2000/svg">
<path d="M16.9747 22.3017C19.9161 22.3017 22.3081 19.9097 22.3081 16.9683C22.3081 14.027 19.9161 11.635 16.9747 11.635C14.0334 11.635 11.6414 14.027 11.6414 16.9683C11.6414 19.9097 14.0334 22.3017 16.9747 22.3017ZM16.9747 14.3017C18.4201 14.3017 19.6414 15.523 19.6414 16.9683C19.6414 18.4137 18.4201 19.635 16.9747 19.635C15.5294 19.635 14.3081 18.4137 14.3081 16.9683C14.3081 15.523 15.5294 14.3017 16.9747 14.3017Z" fill="#E63946"/>
<path d="M4.76809 22.483L6.10142 24.7897C6.80942 26.0123 8.51342 26.471 9.74142 25.763L10.4468 25.355C11.2181 25.9618 12.0686 26.4606 12.9748 26.8377V27.635C12.9748 29.1057 14.1708 30.3017 15.6414 30.3017H18.3081C19.7788 30.3017 20.9748 29.1057 20.9748 27.635V26.8377C21.8806 26.4606 22.731 25.9622 23.5028 25.3563L24.2081 25.7643C25.4388 26.471 27.1388 26.015 27.8494 24.7897L29.1814 22.4843C29.5348 21.8719 29.6306 21.1443 29.4479 20.4613C29.2651 19.7783 28.8187 19.1958 28.2068 18.8417L27.5334 18.4523C27.6766 17.4691 27.6766 16.4703 27.5334 15.487L28.2068 15.0977C28.8185 14.7433 29.2646 14.1608 29.4473 13.4779C29.63 12.795 29.5344 12.0675 29.1814 11.455L27.8494 9.14968C27.1414 7.92301 25.4388 7.46301 24.2081 8.17368L23.5028 8.58168C22.7314 7.97489 21.8809 7.47607 20.9748 7.09901V6.30168C20.9748 4.83101 19.7788 3.63501 18.3081 3.63501H15.6414C14.1708 3.63501 12.9748 4.83101 12.9748 6.30168V7.09901C12.0689 7.47613 11.2185 7.97446 10.4468 8.58034L9.74142 8.17234C8.50942 7.46434 6.80809 7.92301 6.10009 9.14834L4.76809 11.4537C4.41473 12.0661 4.3189 12.7937 4.50165 13.4767C4.6844 14.1597 5.13079 14.7422 5.74275 15.0963L6.41609 15.4857C6.2724 16.4685 6.2724 17.4669 6.41609 18.4497L5.74275 18.839C5.13097 19.1936 4.68479 19.7764 4.50208 20.4595C4.31936 21.1426 4.41503 21.8703 4.76809 22.483ZM9.20275 18.8057C9.0522 18.2048 8.97563 17.5878 8.97475 16.9683C8.97475 16.3523 9.05209 15.7337 9.20142 15.131C9.27174 14.8501 9.24861 14.554 9.13553 14.2874C9.02246 14.0208 8.82559 13.7983 8.57475 13.6537L7.07742 12.787L8.40809 10.4817L9.93475 11.3643C10.1837 11.5084 10.4727 11.5678 10.7583 11.5337C11.0439 11.4996 11.3108 11.3737 11.5188 11.175C12.4208 10.3171 13.5085 9.67876 14.6974 9.30968C14.9705 9.2263 15.2096 9.05745 15.3796 8.82798C15.5495 8.59852 15.6413 8.32055 15.6414 8.03501V6.30168H18.3081V8.03501C18.3082 8.32055 18.4 8.59852 18.5699 8.82798C18.7399 9.05745 18.979 9.2263 19.2521 9.30968C20.4408 9.67929 21.5284 10.3175 22.4308 11.175C22.639 11.3733 22.9058 11.4989 23.1913 11.533C23.4768 11.5672 23.7657 11.508 24.0148 11.3643L25.5401 10.483L26.8734 12.7883L25.3748 13.6537C25.1241 13.7985 24.9273 14.021 24.8143 14.2875C24.7012 14.554 24.678 14.8501 24.7481 15.131C24.8974 15.7337 24.9748 16.3523 24.9748 16.9683C24.9748 17.583 24.8974 18.2017 24.7468 18.8057C24.6768 19.0867 24.7002 19.3829 24.8135 19.6494C24.9268 19.916 25.1238 20.1384 25.3748 20.283L26.8721 21.1483L25.5414 23.4537L24.0148 22.5723C23.7659 22.4281 23.4768 22.3685 23.1912 22.4027C22.9055 22.4368 22.6386 22.5628 22.4308 22.7617C21.5287 23.6196 20.441 24.2579 19.2521 24.627C18.979 24.7104 18.7399 24.8792 18.5699 25.1087C18.4 25.3382 18.3082 25.6161 18.3081 25.9017L18.3108 27.635H15.6414V25.9017C15.6413 25.6161 15.5495 25.3382 15.3796 25.1087C15.2096 24.8792 14.9705 24.7104 14.6974 24.627C13.5088 24.2574 12.4211 23.6191 11.5188 22.7617C11.3112 22.5622 11.0442 22.436 10.7583 22.402C10.4724 22.3681 10.1833 22.4284 9.93475 22.5737L8.40942 23.4563L7.07609 21.151L8.57475 20.283C8.82568 20.1384 9.02269 19.916 9.13599 19.6494C9.24929 19.3829 9.27273 19.0867 9.20275 18.8057Z" fill="#E63946"/>
</svg>
