<svg width="29" height="29" viewBox="0 0 29 29" fill="none" xmlns="http://www.w3.org/2000/svg">
<path d="M21.4957 6.46388L25.4339 2.52709L23.4543 0.547485L19.4699 4.53188C19.1466 4.29831 18.8085 4.086 18.4577 3.89628C17.284 3.26858 15.9736 2.94017 14.6427 2.94017C13.3117 2.94017 12.0013 3.26858 10.8277 3.89628C10.4777 4.08108 10.1445 4.29808 9.81685 4.53048L5.83245 0.547485L3.85285 2.52709L7.79105 6.46388C6.97115 7.50778 6.33228 8.68189 5.90105 9.93728H0.642654V12.7373H3.87245C3.78145 13.4303 3.72265 14.1331 3.72265 14.8373C3.72265 15.5471 3.78145 16.2555 3.87245 16.9527H0.642654V19.7527H4.49685C4.51505 19.8073 4.52625 19.8647 4.54445 19.9179C4.80765 20.6949 5.13385 21.4481 5.51745 22.1579C5.57905 22.2713 5.65045 22.3749 5.71485 22.4855L2.45285 25.7475L4.43245 27.7271L7.38645 24.7717C8.21023 25.6921 9.19041 26.4595 10.2817 27.0383C10.9523 27.3925 11.6565 27.6669 12.3761 27.8503C13.8625 28.232 15.4212 28.2325 16.9079 27.8517C17.6355 27.6645 18.3385 27.3919 19.0023 27.0397C19.6533 26.6953 20.2819 26.2697 20.8685 25.7741C21.2297 25.4689 21.5685 25.1273 21.8961 24.7717L24.8515 27.7271L26.8311 25.7475L23.5691 22.4855C23.6349 22.3735 23.7063 22.2685 23.7679 22.1551C24.1501 21.4481 24.4777 20.6949 24.7395 19.9165C24.7577 19.8619 24.7689 19.8059 24.7871 19.7513H28.6427V16.9513H25.4115C25.5025 16.2527 25.5613 15.5457 25.5613 14.8359C25.5613 14.1317 25.5025 13.4289 25.4129 12.7359H28.6427V9.93728H23.3843C22.9529 8.68221 22.3146 7.50819 21.4957 6.46388ZM9.99605 8.18448C10.6191 7.40328 11.3401 6.79428 12.1353 6.37288C12.9055 5.95761 13.7669 5.74021 14.642 5.74021C15.517 5.74021 16.3784 5.95761 17.1487 6.37288C17.9801 6.82296 18.7094 7.44024 19.2907 8.18588C19.7093 8.70808 20.0467 9.30588 20.3449 9.93728H8.94045C9.24005 9.30588 9.57605 8.70668 9.99605 8.18448ZM22.7627 14.8373C22.7627 15.5681 22.7039 16.2989 22.5863 17.0115C22.4757 17.6975 22.3077 18.3737 22.0893 19.0219C21.8799 19.644 21.6181 20.2473 21.3067 20.8251C21.0107 21.3721 20.6673 21.8921 20.2805 22.3791C19.9067 22.8453 19.4965 23.2695 19.0639 23.6363C18.6299 24.0017 18.1693 24.3139 17.6933 24.5659C17.2173 24.8179 16.7203 25.0097 16.2135 25.1399C16.1575 25.1539 16.0987 25.1595 16.0427 25.1721V16.9373H13.2427V25.1707C13.1867 25.1581 13.1279 25.1525 13.0719 25.1385C12.5665 25.0083 12.0681 24.8165 11.5921 24.5645C11.1161 24.3125 10.6555 24.0003 10.2229 23.6349C9.77662 23.2558 9.36823 22.8343 9.00345 22.3763C8.61655 21.8909 8.27404 21.3718 7.98005 20.8251C7.6684 20.2467 7.40613 19.643 7.19605 19.0205C6.97533 18.3641 6.80865 17.6908 6.69765 17.0073C6.46756 15.5935 6.46473 14.152 6.68925 12.7373H22.5947C22.7053 13.4247 22.7627 14.1303 22.7627 14.8373Z" fill="#E63946"/>
</svg>
