<svg width="28" height="22" viewBox="0 0 28 22" fill="none" xmlns="http://www.w3.org/2000/svg">
<path d="M24.9491 0.666626H3.61573C2.14507 0.666626 0.949066 1.86263 0.949066 3.33329V19.3333C0.949066 20.804 2.14507 22 3.61573 22H24.9491C26.4197 22 27.6157 20.804 27.6157 19.3333V3.33329C27.6157 1.86263 26.4197 0.666626 24.9491 0.666626ZM24.9491 3.33329V4.01463L14.2824 12.312L3.61573 4.01596V3.33329H24.9491ZM3.61573 19.3333V7.39196L13.4637 15.052C13.6972 15.2353 13.9855 15.335 14.2824 15.335C14.5793 15.335 14.8676 15.2353 15.1011 15.052L24.9491 7.39196L24.9517 19.3333H3.61573Z" fill="#E63946"/>
</svg>
