<svg width="32" height="31" viewBox="0 0 32 31" fill="none" xmlns="http://www.w3.org/2000/svg">
<path fill-rule="evenodd" clip-rule="evenodd" d="M16.1631 0C7.48674 0 0.45929 6.99329 0.45929 15.6275C0.45929 22.5426 4.9545 28.3834 11.1968 30.454C11.982 30.5908 12.2764 30.1219 12.2764 29.7117C12.2764 29.3406 12.2568 28.1099 12.2568 26.8011C8.3112 27.5239 7.29045 25.8439 6.97637 24.9649C6.7997 24.5156 6.03414 23.1286 5.36673 22.7575C4.8171 22.4645 4.03191 21.7417 5.3471 21.7222C6.58378 21.7026 7.46711 22.8552 7.76156 23.324C9.1749 25.6876 11.4323 25.0235 12.3353 24.6133C12.4727 23.5975 12.8849 22.9138 13.3364 22.5231C9.84232 22.1324 6.19118 20.7845 6.19118 14.807C6.19118 13.1075 6.7997 11.7011 7.80082 10.6071C7.64378 10.2165 7.09415 8.61464 7.95786 6.46586C7.95786 6.46586 9.27305 6.05564 12.2764 8.06768C13.5327 7.71606 14.8675 7.54025 16.2024 7.54025C17.5372 7.54025 18.872 7.71606 20.1283 8.06768C23.1317 6.03611 24.4469 6.46586 24.4469 6.46586C25.3106 8.61464 24.7609 10.2165 24.6039 10.6071C25.605 11.7011 26.2135 13.088 26.2135 14.807C26.2135 20.8041 22.5428 22.1324 19.0487 22.5231C19.6179 23.0114 20.1087 23.9491 20.1087 25.4142C20.1087 27.5043 20.0891 29.1843 20.0891 29.7117C20.0891 30.1219 20.3835 30.6103 21.1687 30.454C27.3717 28.3834 31.8669 22.5231 31.8669 15.6275C31.8669 6.99329 24.8395 0 16.1631 0Z" fill="#E63946"/>
</svg>
