<svg width="31" height="31" viewBox="0 0 31 31" fill="none" xmlns="http://www.w3.org/2000/svg">
<path d="M2.26834 2.15332C0.124939 4.30664 0.124939 7.77246 0.124939 14.6973V15.9277C0.124939 22.8525 0.124939 26.3184 2.26834 28.4717C4.41173 30.625 7.86158 30.625 14.7545 30.625H15.9793C22.8722 30.625 26.322 30.625 28.4654 28.4717C30.6088 26.3184 30.6088 22.8525 30.6088 15.9277V14.6973C30.6088 7.77246 30.6088 4.30664 28.4654 2.15332C26.322 0 22.8722 0 15.9793 0H14.7545C7.86158 0 4.41173 0 2.26834 2.15332ZM5.26909 9.31738H8.74616C8.86183 15.1621 11.4271 17.6367 13.4616 18.1426V9.31738H16.7414V14.3555C18.7487 14.1367 20.8512 11.8398 21.5657 9.31738H24.8455C24.5733 10.623 24.0425 11.8672 23.2736 12.9609C22.5047 14.0547 21.5249 14.9775 20.3817 15.668C21.6542 16.3037 22.7769 17.1992 23.6751 18.3066C24.5801 19.4072 25.2333 20.6855 25.6076 22.0596H21.9944C21.6678 20.8701 20.9873 19.7969 20.0551 18.9902C19.1161 18.1768 17.9662 17.6641 16.7414 17.5068V22.0596H16.3467C9.39938 22.0596 5.4324 17.2744 5.26909 9.31738Z" fill="#E63946"/>
</svg>
