<svg width="31" height="31" viewBox="0 0 31 31" fill="none" xmlns="http://www.w3.org/2000/svg">
<path d="M0 30.4839L2.18715 22.3588C0.423268 19.1936 -0.137134 15.5002 0.608776 11.9561C1.35469 8.41212 3.35687 5.25527 6.24794 3.06488C9.139 0.874481 12.725 -0.202533 16.3479 0.0314665C19.9708 0.265466 23.3877 1.79478 25.9714 4.33879C28.5551 6.88279 30.1324 10.2708 30.4138 13.8812C30.6953 17.4916 29.662 21.0821 27.5036 23.9939C25.3453 26.9057 22.2065 28.9435 18.6634 29.7333C15.1203 30.5231 11.4105 30.012 8.21472 28.2937L0 30.4839ZM8.61082 25.2532L9.11886 25.5538C11.4336 26.9224 14.1372 27.4887 16.8084 27.1645C19.4795 26.8404 21.9681 25.644 23.8864 23.7618C25.8047 21.8796 27.0449 19.4173 27.4137 16.7587C27.7825 14.1 27.2593 11.3943 25.9255 9.06327C24.5917 6.73221 22.5223 4.90671 20.0398 3.87125C17.5573 2.83579 14.8011 2.64853 12.2007 3.33866C9.60035 4.02879 7.3019 5.55754 5.66354 7.68668C4.02519 9.81581 3.13895 12.4257 3.14295 15.1097C3.14077 17.3352 3.75781 19.5176 4.92539 21.414L5.24399 21.9379L4.02125 26.4728L8.61082 25.2532Z" fill="#E63946"/>
<path fill-rule="evenodd" clip-rule="evenodd" d="M20.9413 17.196C20.6434 16.9564 20.2947 16.7878 19.9217 16.7029C19.5486 16.6181 19.1611 16.6193 18.7886 16.7065C18.2289 16.9384 17.8672 17.8144 17.5056 18.2525C17.4293 18.3575 17.3172 18.4311 17.1904 18.4596C17.0636 18.488 16.9307 18.4694 16.8167 18.4071C14.7676 17.6065 13.05 16.1385 11.943 14.2414C11.8485 14.1231 11.8039 13.9728 11.8183 13.8222C11.8328 13.6716 11.9052 13.5324 12.0205 13.4341C12.4238 13.0358 12.72 12.5425 12.8815 11.9997C12.9174 11.4011 12.7799 10.8048 12.4854 10.282C12.2578 9.54894 11.8245 8.89624 11.2369 8.40098C10.9338 8.26501 10.5977 8.21942 10.2692 8.26971C9.94071 8.32 9.63381 8.46403 9.38555 8.68442C8.95455 9.05532 8.61245 9.51794 8.38445 10.0382C8.15644 10.5584 8.04834 11.1231 8.0681 11.6905C8.06943 12.0092 8.10991 12.3265 8.18865 12.6353C8.3886 13.3773 8.69609 14.0862 9.10139 14.7396C9.39381 15.2401 9.71287 15.7246 10.0572 16.1911C11.1762 17.7234 12.5828 19.0243 14.199 20.0218C15.01 20.5287 15.8768 20.9408 16.7822 21.25C17.7228 21.6753 18.7613 21.8385 19.7874 21.7224C20.3721 21.6341 20.926 21.4039 21.4005 21.0519C21.875 20.7 22.2554 20.2371 22.5084 19.704C22.6571 19.382 22.7022 19.0219 22.6376 18.6733C22.4826 17.9604 21.5268 17.5396 20.9413 17.196Z" fill="#E63946"/>
</svg>
